<?xml version="1.0" encoding="utf-8"?>
<!-- Generator: Adobe Illustrator 16.0.0, SVG Export Plug-In . SVG Version: 6.00 Build 0)  -->
<!DOCTYPE svg PUBLIC "-//W3C//DTD SVG 1.1//EN" "http://www.w3.org/Graphics/SVG/1.1/DTD/svg11.dtd">
<svg version="1.1" id="Layer_2" xmlns="http://www.w3.org/2000/svg" xmlns:xlink="http://www.w3.org/1999/xlink" x="0px" y="0px"
	 width="400.667px" height="400.666px" viewBox="0 0 400.667 400.666" enable-background="new 0 0 400.667 400.666"
	 xml:space="preserve">
<g>
	<polygon fill="#FF2A00" points="201.347,384.448 193.248,401.271 209.895,401.271 	"/>
</g>
<g>
	<polygon fill="#FFFFFF" points="331.599,331.632 337.801,349.349 349.634,337.518 	"/>
</g>
<g>
	<polygon fill="#FFFFFF" points="70.331,332.37 53.972,338.095 64.896,349.017 	"/>
</g>
<g>
	<polygon fill="#FF2A00" points="18.105,201.428 1.458,193.413 1.458,209.884 	"/>
</g>
<g>
	<polygon fill="#FFFFFF" points="70.418,70.553 64.591,53.905 53.474,65.023 	"/>
</g>
<g>
	<polygon fill="#FFFFFF" points="332.235,70.349 348.588,64.624 337.667,53.702 	"/>
</g>
<g>
	<polygon fill="#FF2A00" points="384.367,201.294 401.196,209.396 401.196,192.748 	"/>
</g>
<g>
	<polygon fill="#FF2A00" points="201.678,17.811 209.779,0.984 193.131,0.983 	"/>
</g>
<polyline fill="#FFFFFF" points="200.512,102.81 186.667,248.728 200.333,254.832 214,248.728 200.512,102.81 "/>
</svg>
