<?xml version="1.0" encoding="utf-8"?>
<!-- Generator: Adobe Illustrator 16.0.0, SVG Export Plug-In . SVG Version: 6.00 Build 0)  -->
<!DOCTYPE svg PUBLIC "-//W3C//DTD SVG 1.1//EN" "http://www.w3.org/Graphics/SVG/1.1/DTD/svg11.dtd">
<svg version="1.1" id="Layer_2" xmlns="http://www.w3.org/2000/svg" xmlns:xlink="http://www.w3.org/1999/xlink" x="0px" y="0px"
	 width="400.667px" height="400.666px" viewBox="0 0 400.667 400.666" enable-background="new 0 0 400.667 400.666"
	 xml:space="preserve">
<line fill="none" stroke="#FFFFFF" stroke-width="2" stroke-miterlimit="10" x1="199.833" y1="386.27" x2="199.833" y2="357.113"/>
<line fill="none" stroke="#FFFFFF" stroke-width="2" stroke-miterlimit="10" x1="216.112" y1="385.56" x2="214.379" y2="365.75"/>
<line fill="none" stroke="#FFFFFF" stroke-width="2" stroke-miterlimit="10" x1="248.173" y1="379.906" x2="243.028" y2="360.7"/>
<line fill="none" stroke="#FFFFFF" stroke-width="2" stroke-miterlimit="10" x1="278.766" y1="368.771" x2="270.363" y2="350.75"/>
<line fill="none" stroke="#FFFFFF" stroke-width="2" stroke-miterlimit="10" x1="306.96" y1="352.495" x2="295.555" y2="336.207"/>
<line fill="none" stroke="#FFFFFF" stroke-width="2" stroke-miterlimit="10" x1="331.901" y1="331.568" x2="317.839" y2="317.507"/>
<line fill="none" stroke="#FFFFFF" stroke-width="2" stroke-miterlimit="10" x1="352.829" y1="306.627" x2="336.54" y2="295.223"/>
<line fill="none" stroke="#FFFFFF" stroke-width="2" stroke-miterlimit="10" x1="369.106" y1="278.435" x2="351.083" y2="270.031"/>
<line fill="none" stroke="#FFFFFF" stroke-width="2" stroke-miterlimit="10" x1="380.242" y1="247.843" x2="361.033" y2="242.695"/>
<line fill="none" stroke="#FFFFFF" stroke-width="2" stroke-miterlimit="10" x1="385.897" y1="215.779" x2="366.084" y2="214.047"/>
<line fill="none" stroke="#FFFFFF" stroke-width="2" stroke-miterlimit="10" x1="385.897" y1="183.222" x2="366.088" y2="184.958"/>
<line fill="none" stroke="#FFFFFF" stroke-width="2" stroke-miterlimit="10" x1="380.245" y1="151.16" x2="361.035" y2="156.309"/>
<line fill="none" stroke="#FFFFFF" stroke-width="2" stroke-miterlimit="10" x1="369.108" y1="120.567" x2="351.088" y2="128.973"/>
<line fill="none" stroke="#FFFFFF" stroke-width="2" stroke-miterlimit="10" x1="352.831" y1="92.373" x2="336.544" y2="103.78"/>
<line fill="none" stroke="#FFFFFF" stroke-width="2" stroke-miterlimit="10" x1="331.903" y1="67.433" x2="317.843" y2="81.494"/>
<line fill="none" stroke="#FFFFFF" stroke-width="2" stroke-miterlimit="10" x1="306.964" y1="46.506" x2="295.561" y2="62.794"/>
<line fill="none" stroke="#FFFFFF" stroke-width="2" stroke-miterlimit="10" x1="278.769" y1="30.227" x2="270.369" y2="48.25"/>
<line fill="none" stroke="#FFFFFF" stroke-width="2" stroke-miterlimit="10" x1="248.177" y1="19.092" x2="243.032" y2="38.299"/>
<line fill="none" stroke="#FFFFFF" stroke-width="2" stroke-miterlimit="10" x1="216.114" y1="13.438" x2="214.384" y2="33.247"/>
<line fill="none" stroke="#FFFFFF" stroke-width="2" stroke-miterlimit="10" x1="183.559" y1="13.438" x2="185.293" y2="33.246"/>
<line fill="none" stroke="#FFFFFF" stroke-width="2" stroke-miterlimit="10" x1="151.498" y1="19.091" x2="156.646" y2="38.296"/>
<line fill="none" stroke="#FFFFFF" stroke-width="2" stroke-miterlimit="10" x1="120.904" y1="30.225" x2="129.31" y2="48.246"/>
<line fill="none" stroke="#FFFFFF" stroke-width="2" stroke-miterlimit="10" x1="92.709" y1="46.502" x2="104.116" y2="62.789"/>
<line fill="none" stroke="#FFFFFF" stroke-width="2" stroke-miterlimit="10" x1="67.77" y1="67.429" x2="81.831" y2="81.489"/>
<line fill="none" stroke="#FFFFFF" stroke-width="2" stroke-miterlimit="10" x1="46.841" y1="92.369" x2="63.13" y2="103.772"/>
<line fill="none" stroke="#FFFFFF" stroke-width="2" stroke-miterlimit="10" x1="30.563" y1="120.564" x2="48.584" y2="128.965"/>
<line fill="none" stroke="#FFFFFF" stroke-width="2" stroke-miterlimit="10" x1="19.429" y1="151.156" x2="38.635" y2="156.302"/>
<line fill="none" stroke="#FFFFFF" stroke-width="2" stroke-miterlimit="10" x1="13.775" y1="183.219" x2="33.583" y2="184.95"/>
<line fill="none" stroke="#FFFFFF" stroke-width="2" stroke-miterlimit="10" x1="13.773" y1="215.774" x2="33.581" y2="214.04"/>
<line fill="none" stroke="#FFFFFF" stroke-width="2" stroke-miterlimit="10" x1="19.426" y1="247.835" x2="38.633" y2="242.688"/>
<line fill="none" stroke="#FFFFFF" stroke-width="2" stroke-miterlimit="10" x1="30.56" y1="278.431" x2="48.581" y2="270.025"/>
<line fill="none" stroke="#FFFFFF" stroke-width="2" stroke-miterlimit="10" x1="46.836" y1="306.624" x2="63.125" y2="295.219"/>
<line fill="none" stroke="#FFFFFF" stroke-width="2" stroke-miterlimit="10" x1="67.763" y1="331.564" x2="81.824" y2="317.503"/>
<line fill="none" stroke="#FFFFFF" stroke-width="2" stroke-miterlimit="10" x1="92.703" y1="352.493" x2="104.107" y2="336.203"/>
<line fill="none" stroke="#FFFFFF" stroke-width="2" stroke-miterlimit="10" x1="120.896" y1="368.772" x2="129.299" y2="350.75"/>
<line fill="none" stroke="#FFFFFF" stroke-width="2" stroke-miterlimit="10" x1="151.489" y1="379.906" x2="156.636" y2="360.699"/>
<line fill="none" stroke="#FFFFFF" stroke-width="2" stroke-miterlimit="10" x1="183.551" y1="385.562" x2="185.284" y2="365.752"/>
<line fill="none" stroke="#FFFFFF" stroke-width="2" stroke-miterlimit="10" x1="232.266" y1="383.433" x2="227.205" y2="354.718"/>
<line fill="none" stroke="#FFFFFF" stroke-width="2" stroke-miterlimit="10" x1="263.711" y1="375.006" x2="253.742" y2="347.608"/>
<line fill="none" stroke="#FFFFFF" stroke-width="2" stroke-miterlimit="10" x1="293.217" y1="361.248" x2="278.641" y2="335.996"/>
<line fill="none" stroke="#FFFFFF" stroke-width="2" stroke-miterlimit="10" x1="319.887" y1="342.575" x2="301.145" y2="320.239"/>
<line fill="none" stroke="#FFFFFF" stroke-width="2" stroke-miterlimit="10" x1="342.91" y1="319.555" x2="320.573" y2="300.812"/>
<line fill="none" stroke="#FFFFFF" stroke-width="2" stroke-miterlimit="10" x1="361.582" y1="292.885" x2="336.331" y2="278.306"/>
<line fill="none" stroke="#FFFFFF" stroke-width="2" stroke-miterlimit="10" x1="375.339" y1="263.379" x2="347.943" y2="253.407"/>
<line fill="none" stroke="#FFFFFF" stroke-width="2" stroke-miterlimit="10" x1="383.767" y1="231.934" x2="355.054" y2="226.87"/>
<line fill="none" stroke="#FFFFFF" stroke-width="2" stroke-miterlimit="10" x1="386.604" y1="199.5" x2="357.448" y2="199.5"/>
<line fill="none" stroke="#FFFFFF" stroke-width="2" stroke-miterlimit="10" x1="383.767" y1="167.068" x2="355.054" y2="172.13"/>
<line fill="none" stroke="#FFFFFF" stroke-width="2" stroke-miterlimit="10" x1="375.339" y1="135.623" x2="347.943" y2="145.593"/>
<line fill="none" stroke="#FFFFFF" stroke-width="2" stroke-miterlimit="10" x1="361.582" y1="106.116" x2="336.333" y2="120.694"/>
<line fill="none" stroke="#FFFFFF" stroke-width="2" stroke-miterlimit="10" x1="342.91" y1="79.448" x2="320.576" y2="98.189"/>
<line fill="none" stroke="#FFFFFF" stroke-width="2" stroke-miterlimit="10" x1="319.887" y1="56.427" x2="301.147" y2="78.761"/>
<line fill="none" stroke="#FFFFFF" stroke-width="2" stroke-miterlimit="10" x1="293.22" y1="37.754" x2="278.641" y2="63.003"/>
<line fill="none" stroke="#FFFFFF" stroke-width="2" stroke-miterlimit="10" x1="263.714" y1="23.995" x2="253.742" y2="51.392"/>
<line fill="none" stroke="#FFFFFF" stroke-width="2" stroke-miterlimit="10" x1="232.268" y1="15.569" x2="227.207" y2="44.28"/>
<line fill="none" stroke="#FFFFFF" stroke-width="2" stroke-miterlimit="10" x1="199.835" y1="12.73" x2="199.834" y2="41.886"/>
<line fill="none" stroke="#FFFFFF" stroke-width="2" stroke-miterlimit="10" x1="167.404" y1="15.568" x2="172.465" y2="44.28"/>
<line fill="none" stroke="#FFFFFF" stroke-width="2" stroke-miterlimit="10" x1="135.958" y1="23.994" x2="145.929" y2="51.392"/>
<line fill="none" stroke="#FFFFFF" stroke-width="2" stroke-miterlimit="10" x1="106.452" y1="37.752" x2="121.028" y2="63.001"/>
<line fill="none" stroke="#FFFFFF" stroke-width="2" stroke-miterlimit="10" x1="79.782" y1="56.426" x2="98.524" y2="78.76"/>
<line fill="none" stroke="#FFFFFF" stroke-width="2" stroke-miterlimit="10" x1="56.761" y1="79.446" x2="79.097" y2="98.188"/>
<line fill="none" stroke="#FFFFFF" stroke-width="2" stroke-miterlimit="10" x1="38.088" y1="106.114" x2="63.339" y2="120.692"/>
<line fill="none" stroke="#FFFFFF" stroke-width="2" stroke-miterlimit="10" x1="24.33" y1="135.62" x2="51.728" y2="145.591"/>
<line fill="none" stroke="#FFFFFF" stroke-width="2" stroke-miterlimit="10" x1="15.902" y1="167.066" x2="44.617" y2="172.128"/>
<line fill="none" stroke="#FFFFFF" stroke-width="2" stroke-miterlimit="10" x1="13.065" y1="199.499" x2="42.222" y2="199.498"/>
<line fill="none" stroke="#FFFFFF" stroke-width="2" stroke-miterlimit="10" x1="15.902" y1="231.932" x2="44.615" y2="226.866"/>
<line fill="none" stroke="#FFFFFF" stroke-width="2" stroke-miterlimit="10" x1="24.329" y1="263.377" x2="51.727" y2="253.403"/>
<line fill="none" stroke="#FFFFFF" stroke-width="2" stroke-miterlimit="10" x1="38.085" y1="292.883" x2="63.338" y2="278.304"/>
<line fill="none" stroke="#FFFFFF" stroke-width="2" stroke-miterlimit="10" x1="56.759" y1="319.553" x2="79.095" y2="300.809"/>
<line fill="none" stroke="#FFFFFF" stroke-width="2" stroke-miterlimit="10" x1="79.78" y1="342.573" x2="98.523" y2="320.236"/>
<line fill="none" stroke="#FFFFFF" stroke-width="2" stroke-miterlimit="10" x1="106.449" y1="361.247" x2="121.027" y2="335.994"/>
<line fill="none" stroke="#FFFFFF" stroke-width="2" stroke-miterlimit="10" x1="135.956" y1="375.006" x2="145.926" y2="347.605"/>
<line fill="none" stroke="#FFFFFF" stroke-width="2" stroke-miterlimit="10" x1="167.401" y1="383.433" x2="172.463" y2="354.717"/>
<g>
	<path fill="#FFFFFF" stroke="#FFFFFF" stroke-miterlimit="10" d="M190.257,76.728V49.917h0.583l17.844,20.554V49.917h2.643v26.812
		h-0.602l-17.698-20.302v20.302h-2.771V76.728z"/>
</g>
<g>
	<path fill="#FFFFFF" stroke="#FFFFFF" stroke-miterlimit="10" d="M118.562,86.417l-1.973,1.14
		c-0.562-1.803-0.583-3.428-0.062-4.876c0.521-1.446,1.476-2.569,2.861-3.369c1.009-0.583,2.083-0.895,3.22-0.939
		c1.139-0.043,2.172,0.187,3.101,0.692c0.928,0.506,1.638,1.183,2.129,2.033c0.961,1.667,0.896,3.464-0.201,5.396
		c1.148-0.16,2.23-0.047,3.245,0.336c1.435,0.54,2.518,1.445,3.253,2.717c0.633,1.098,0.948,2.31,0.944,3.64
		c-0.005,1.329-0.349,2.554-1.035,3.675c-0.687,1.12-1.647,2.038-2.883,2.751c-1.667,0.961-3.335,1.284-5.002,0.968
		c-1.668-0.318-3.209-1.308-4.627-2.97l1.895-1.094c1.058,1.063,2.059,1.695,3.005,1.895c1.209,0.25,2.43,0.018,3.667-0.696
		c1.403-0.811,2.287-1.882,2.651-3.215c0.364-1.333,0.222-2.565-0.432-3.696c-0.437-0.754-1.056-1.338-1.861-1.749
		c-0.805-0.412-1.661-0.579-2.567-0.5c-0.907,0.08-2.134,0.513-3.679,1.299l-1.024-1.775c0.885-0.512,1.602-1.132,2.151-1.864
		c0.547-0.731,0.847-1.434,0.897-2.105c0.051-0.672-0.087-1.293-0.417-1.864c-0.487-0.842-1.241-1.375-2.267-1.603
		c-1.025-0.227-2.051-0.043-3.077,0.549c-0.833,0.481-1.417,1.131-1.752,1.949C118.388,83.958,118.335,85.05,118.562,86.417z"/>
	<path fill="#FFFFFF" stroke="#FFFFFF" stroke-miterlimit="10" d="M133.493,77.797l-1.973,1.139
		c-0.562-1.803-0.584-3.428-0.062-4.875c0.521-1.447,1.475-2.569,2.86-3.37c1.009-0.582,2.083-0.894,3.22-0.938
		c1.141-0.042,2.173,0.188,3.101,0.692c0.929,0.505,1.639,1.182,2.131,2.032c0.961,1.667,0.895,3.465-0.201,5.395
		c1.146-0.159,2.229-0.048,3.245,0.336c1.436,0.54,2.519,1.446,3.253,2.717c0.633,1.096,0.948,2.309,0.943,3.638
		c-0.004,1.33-0.348,2.555-1.036,3.676c-0.686,1.12-1.646,2.038-2.883,2.752c-1.666,0.962-3.334,1.285-5.001,0.967
		c-1.669-0.319-3.21-1.307-4.626-2.969l1.895-1.094c1.057,1.063,2.058,1.694,3.005,1.895c1.209,0.25,2.43,0.019,3.667-0.697
		c1.402-0.809,2.287-1.881,2.651-3.213c0.363-1.333,0.221-2.565-0.434-3.696c-0.436-0.754-1.057-1.337-1.86-1.749
		c-0.804-0.412-1.661-0.579-2.568-0.499s-2.133,0.513-3.677,1.299l-1.026-1.776c0.885-0.511,1.602-1.132,2.152-1.863
		c0.546-0.732,0.848-1.434,0.897-2.106c0.052-0.672-0.088-1.292-0.418-1.864c-0.486-0.841-1.242-1.375-2.266-1.603
		c-1.025-0.226-2.051-0.042-3.078,0.549c-0.833,0.481-1.416,1.13-1.75,1.949C133.317,75.338,133.264,76.43,133.493,77.797z"/>
</g>
<g>
	<path fill="#FFFFFF" stroke="#FFFFFF" stroke-miterlimit="10" d="M73.03,140.836l-1.138,1.973c-1.389-1.28-2.219-2.678-2.493-4.192
		c-0.271-1.513-0.007-2.963,0.793-4.349c0.582-1.008,1.356-1.815,2.319-2.423c0.964-0.605,1.975-0.923,3.031-0.95
		c1.058-0.028,2.01,0.205,2.861,0.695c1.667,0.962,2.508,2.554,2.525,4.772c0.913-0.711,1.906-1.154,2.979-1.331
		c1.512-0.249,2.904-0.007,4.174,0.727c1.097,0.634,1.976,1.527,2.637,2.68c0.66,1.154,0.974,2.387,0.942,3.701
		c-0.034,1.314-0.408,2.588-1.122,3.825c-0.961,1.666-2.246,2.778-3.847,3.339c-1.605,0.56-3.435,0.472-5.491-0.259l1.094-1.895
		c1.447,0.392,2.63,0.439,3.551,0.139c1.17-0.389,2.113-1.201,2.828-2.437c0.809-1.402,1.039-2.773,0.688-4.11
		c-0.35-1.336-1.091-2.333-2.222-2.985c-0.754-0.436-1.583-0.631-2.486-0.584c-0.903,0.045-1.728,0.329-2.474,0.852
		c-0.745,0.523-1.59,1.511-2.535,2.964l-1.776-1.025c0.512-0.886,0.821-1.783,0.931-2.69c0.108-0.907,0.018-1.666-0.276-2.272
		c-0.291-0.608-0.723-1.076-1.294-1.405c-0.841-0.487-1.763-0.57-2.765-0.255c-1.002,0.317-1.796,0.988-2.39,2.015
		c-0.482,0.833-0.661,1.687-0.543,2.563C71.652,138.795,72.151,139.769,73.03,140.836z"/>
	<path fill="#FFFFFF" stroke="#FFFFFF" stroke-miterlimit="10" d="M85.282,131.616c-2.552-1.473-4.366-2.886-5.445-4.239
		c-1.077-1.353-1.686-2.737-1.83-4.151c-0.141-1.415,0.144-2.742,0.859-3.977c0.722-1.254,1.741-2.18,3.051-2.781
		c1.312-0.598,2.86-0.777,4.648-0.534c1.79,0.244,3.903,1.069,6.341,2.478c2.429,1.402,4.195,2.811,5.296,4.225
		c1.102,1.414,1.723,2.845,1.862,4.294c0.14,1.45-0.151,2.8-0.875,4.054c-0.715,1.236-1.714,2.146-2.995,2.726
		c-1.282,0.581-2.788,0.744-4.517,0.487S87.817,133.079,85.282,131.616z M86.371,129.807c2.186,1.261,3.951,2.021,5.294,2.277
		c1.344,0.255,2.526,0.169,3.546-0.26c1.021-0.428,1.775-1.067,2.266-1.919c0.495-0.859,0.677-1.825,0.541-2.897
		c-0.134-1.071-0.658-2.127-1.567-3.168c-1.1-1.277-2.618-2.476-4.558-3.595c-1.949-1.125-3.668-1.831-5.159-2.119
		c-1.49-0.287-2.742-0.218-3.754,0.208c-1.013,0.426-1.763,1.061-2.25,1.903c-0.496,0.86-0.675,1.833-0.535,2.918
		c0.14,1.087,0.655,2.15,1.547,3.19C82.634,127.385,84.177,128.54,86.371,129.807z"/>
</g>
<g>
	<path fill="#FFFFFF" stroke="#FFFFFF" stroke-miterlimit="10" d="M87.328,279.693l1.069,1.854
		c-1.938,1.049-3.872,1.315-5.804,0.799c-1.931-0.515-3.416-1.671-4.453-3.47c-1.028-1.781-1.286-3.554-0.771-5.314
		c0.513-1.766,1.551-3.098,3.112-4c1.097-0.634,2.277-0.964,3.542-0.994c1.264-0.032,3.153,0.238,5.666,0.805l7.974,1.823
		l-5.155-8.928l1.869-1.077l7.587,13.142l-12.258-2.781c-2.473-0.571-4.227-0.858-5.264-0.861c-1.038-0.004-1.987,0.243-2.847,0.74
		c-1.087,0.627-1.79,1.574-2.107,2.839c-0.317,1.264-0.137,2.484,0.542,3.66c0.714,1.234,1.721,2.025,3.018,2.369
		C84.345,280.641,85.772,280.438,87.328,279.693z"/>
	<path fill="#FFFFFF" stroke="#FFFFFF" stroke-miterlimit="10" d="M67.347,260.182l-0.227-0.392l13.496-7.792l-1.351-2.343
		l1.842-1.062l1.351,2.343l4.5-2.598l1.108,1.921l-4.499,2.598l5.346,9.26L67.347,260.182z M81.726,253.918l-8.127,4.692
		l11.437,1.04L81.726,253.918z"/>
</g>
<g>
	<path fill="#FFFFFF" stroke="#FFFFFF" stroke-miterlimit="10" d="M141.937,324.788l1.855,1.069
		c-1.154,1.878-2.696,3.076-4.628,3.595c-1.93,0.52-3.794,0.259-5.592-0.778c-1.781-1.028-2.889-2.433-3.326-4.22
		c-0.438-1.786-0.206-3.458,0.696-5.018c0.634-1.1,1.491-1.975,2.57-2.633c1.078-0.658,2.849-1.371,5.309-2.138l7.817-2.407
		l-8.926-5.153l1.079-1.869l13.141,7.587l-12.005,3.722c-2.427,0.74-4.091,1.368-4.991,1.885c-0.899,0.516-1.598,1.204-2.094,2.063
		c-0.629,1.086-0.764,2.261-0.405,3.515c0.357,1.251,1.123,2.218,2.298,2.897c1.236,0.713,2.503,0.895,3.798,0.545
		C139.828,327.099,140.962,326.212,141.937,324.788z"/>
	<path fill="#FFFFFF" stroke="#FFFFFF" stroke-miterlimit="10" d="M121.646,321.14l-3.802-2.195l11.171-19.352l1.92,1.109
		l-10.079,17.456l3.039,1.755L121.646,321.14z"/>
</g>
<g>
	<path fill="#FFFFFF" stroke="#FFFFFF" stroke-miterlimit="10" d="M280.752,319.755l-3.803,2.194l-11.172-19.351l1.919-1.11
		l10.079,17.457l3.037-1.754L280.752,319.755z"/>
	<path fill="#FFFFFF" stroke="#FFFFFF" stroke-miterlimit="10" d="M259.984,331.743l-1.062-1.841l6.876-3.97l-2.078-5.834
		c-0.7,0.731-1.385,1.291-2.061,1.683c-1.761,1.016-3.551,1.266-5.376,0.746s-3.27-1.699-4.331-3.543
		c-0.734-1.27-1.114-2.607-1.139-4.008c-0.025-1.399,0.3-2.672,0.979-3.817c0.678-1.147,1.674-2.099,2.988-2.858
		c1.57-0.907,3.172-1.191,4.804-0.853c1.634,0.337,2.995,1.208,4.088,2.612l-1.986,1.146c-0.581-0.659-1.182-1.117-1.807-1.378
		c-0.621-0.26-1.312-0.362-2.07-0.305c-0.754,0.057-1.458,0.273-2.105,0.647c-1.27,0.734-2.085,1.846-2.443,3.336
		c-0.354,1.49-0.114,2.957,0.721,4.402c0.752,1.305,1.775,2.126,3.07,2.465c1.295,0.338,2.631,0.111,4.007-0.685
		c1.141-0.658,2.321-1.802,3.544-3.432l3.765,10.648L259.984,331.743z"/>
</g>
<g>
	<path fill="#FFFFFF" stroke="#FFFFFF" stroke-miterlimit="10" d="M330.093,262.131l-2.195,3.802l-19.35-11.171l1.108-1.92
		l17.456,10.076l1.754-3.038L330.093,262.131z"/>
	<path fill="#FFFFFF" stroke="#FFFFFF" stroke-miterlimit="10" d="M317.9,269.276l1.071-1.854c1.877,1.156,3.075,2.696,3.595,4.629
		c0.518,1.93,0.26,3.793-0.78,5.592c-1.025,1.781-2.432,2.89-4.219,3.325c-1.784,0.438-3.456,0.205-5.019-0.697
		c-1.097-0.632-1.974-1.489-2.631-2.566c-0.658-1.082-1.371-2.852-2.137-5.311l-2.409-7.817l-5.154,8.928l-1.866-1.079l7.586-13.143
		l3.722,12.005c0.739,2.429,1.368,4.091,1.884,4.992c0.517,0.9,1.205,1.597,2.065,2.095c1.088,0.63,2.258,0.765,3.511,0.405
		c1.256-0.356,2.223-1.122,2.9-2.299c0.714-1.235,0.895-2.503,0.544-3.798C320.213,271.384,319.327,270.25,317.9,269.276z"/>
</g>
<g>
	<path fill="#FFFFFF" stroke="#FFFFFF" stroke-miterlimit="10" d="M326.695,128.448l-0.12,2.192l-10.939-0.662
		c0.644,0.566,1.14,1.157,1.496,1.771c0.887,1.538,1.085,3.162,0.596,4.874c-0.492,1.712-1.548,3.037-3.169,3.974
		c-1.115,0.643-2.27,0.964-3.468,0.965s-2.338-0.323-3.419-0.968c-1.079-0.646-1.938-1.518-2.57-2.616
		c-0.614-1.062-0.926-2.196-0.938-3.4c-0.012-1.205,0.297-2.334,0.929-3.39c0.63-1.055,1.476-1.889,2.537-2.501
		c0.79-0.455,1.71-0.775,2.771-0.958c1.058-0.183,2.439-0.216,4.144-0.099L326.695,128.448z M315.168,132.27
		c-0.649-1.124-1.601-1.855-2.853-2.192c-1.252-0.336-2.443-0.179-3.576,0.476c-1.123,0.648-1.852,1.598-2.186,2.851
		c-0.334,1.255-0.177,2.442,0.472,3.566c0.647,1.124,1.601,1.855,2.852,2.192c1.253,0.337,2.44,0.182,3.562-0.468
		c1.131-0.651,1.864-1.606,2.199-2.859C315.973,134.583,315.817,133.394,315.168,132.27z"/>
</g>
<g>
	<path fill="#FFFFFF" stroke="#FFFFFF" stroke-miterlimit="10" d="M264.718,76.01l-1.973-1.139c1.279-1.388,2.677-2.218,4.192-2.492
		c1.513-0.271,2.962-0.008,4.349,0.792c1.008,0.583,1.815,1.356,2.423,2.319c0.605,0.965,0.923,1.975,0.95,3.032
		c0.027,1.058-0.206,2.01-0.695,2.861c-0.962,1.667-2.554,2.508-4.772,2.524c0.712,0.913,1.154,1.906,1.332,2.979
		c0.249,1.511,0.008,2.904-0.727,4.174c-0.635,1.098-1.527,1.976-2.681,2.637c-1.153,0.66-2.387,0.974-3.701,0.941
		c-1.313-0.033-2.587-0.408-3.824-1.121c-1.666-0.962-2.779-2.246-3.338-3.848c-0.561-1.605-0.474-3.435,0.257-5.491l1.895,1.094
		c-0.391,1.448-0.438,2.63-0.137,3.551c0.388,1.171,1.2,2.114,2.435,2.829c1.402,0.809,2.774,1.039,4.111,0.688
		c1.335-0.349,2.333-1.091,2.984-2.222c0.437-0.754,0.631-1.582,0.584-2.485c-0.045-0.904-0.328-1.728-0.852-2.475
		c-0.522-0.745-1.511-1.59-2.964-2.536l1.026-1.775c0.885,0.511,1.781,0.821,2.69,0.93c0.906,0.108,1.664,0.018,2.271-0.276
		c0.607-0.291,1.074-0.723,1.405-1.293c0.486-0.841,0.568-1.763,0.255-2.765c-0.318-1.002-0.989-1.797-2.015-2.391
		c-0.834-0.481-1.688-0.66-2.564-0.542C266.759,74.63,265.785,75.13,264.718,76.01z"/>
</g>
<g>
	<path fill="#FFFFFF" stroke="#FFFFFF" stroke-miterlimit="10" d="M50.25,215.585v-2.752l19.32-5.477l-19.32-7.688v-0.556
		l19.32-7.597l-19.32-5.57v-2.731l26.812,7.703v0.498l-20.287,7.957l20.287,8.111v0.5L50.25,215.585z"/>
</g>
<g>
	<path fill="#FFFFFF" stroke="#FFFFFF" stroke-miterlimit="10" d="M207.222,327.264l-2.278,1.368c-1.604-2.952-3.457-4.43-5.56-4.43
		c-0.9,0-1.744,0.209-2.534,0.629c-0.791,0.419-1.391,0.981-1.804,1.686s-0.62,1.452-0.62,2.242c0,0.899,0.304,1.782,0.911,2.643
		c0.838,1.191,2.369,2.623,4.592,4.302c2.237,1.688,3.627,2.911,4.174,3.664c0.947,1.264,1.422,2.63,1.422,4.102
		c0,1.168-0.279,2.229-0.839,3.188c-0.559,0.959-1.346,1.717-2.359,2.269c-1.015,0.555-2.119,0.831-3.309,0.831
		c-1.265,0-2.445-0.312-3.545-0.938c-1.1-0.625-2.264-1.776-3.49-3.453l2.188-1.66c1.008,1.337,1.868,2.218,2.579,2.645
		c0.711,0.425,1.485,0.637,2.324,0.637c1.081,0,1.966-0.329,2.652-0.984c0.685-0.655,1.03-1.463,1.03-2.423
		c0-0.583-0.123-1.148-0.365-1.696c-0.242-0.545-0.686-1.142-1.33-1.785c-0.352-0.341-1.506-1.233-3.463-2.68
		c-2.32-1.714-3.913-3.239-4.775-4.575s-1.293-2.68-1.293-4.028c0-1.944,0.737-3.633,2.214-5.067c1.477-1.433,3.271-2.15,5.386-2.15
		c1.63,0,3.105,0.435,4.429,1.303C204.885,323.769,206.104,325.224,207.222,327.264z"/>
</g>
<g>
	<path fill="#FFFFFF" stroke="#FFFFFF" stroke-miterlimit="10" d="M349.416,191.167v15.365h-2.625v-12.685h-8.4v12.575h-2.625
		v-12.575h-10.536v12.575h-2.624v-15.256H349.416z"/>
</g>
</svg>
